<svg xmlns="http://www.w3.org/2000/svg" viewBox="0 0 160 160" fill="none">
  <circle cx="80" cy="80" r="77" fill="#0d0e0e"/>
  <path d="M38 66h84l-8-18H46l-8 18Z" fill="#c7f36b" stroke="#c7f36b" stroke-width="2.5" stroke-linejoin="round"/>
  <path d="M45 66v48m70-48v48M39 114h82M50 79h60v35H50V79Z" stroke="#f1f1ef" stroke-width="2.5" stroke-linecap="round" stroke-linejoin="round"/>
  <path d="M57 79V70h46v9M61 114v7m38-7v7" stroke="#c7f36b" stroke-width="2.5" stroke-linecap="round"/>
  <path d="M66 74h9l-2 5h-5l-2-5Zm13-7h9l-2 12h-5l-2-12Zm14 4h7l1 8h-9l1-8Z" stroke="#f1f1ef" stroke-width="2" stroke-linecap="round" stroke-linejoin="round"/>
</svg>
